<svg xmlns="http://www.w3.org/2000/svg" viewBox="0 0 480 220"><circle cx="332.81" cy="119.18" r="4.10" fill="#cf786e" opacity="1"/><circle cx="318.53" cy="54.91" r="4.11" fill="#cf786e" opacity="1"/><polyline points="351.95,84.12 332.81,119.18" fill="none" stroke="#cf786e" stroke-width="1" opacity="0.5"/><polyline points="294.26,90.83 332.81,119.18" fill="none" stroke="#cf786e" stroke-width="1" opacity="0.5"/><polyline points="318.53,54.91 351.95,84.12" fill="none" stroke="#cf786e" stroke-width="1" opacity="0.5"/><polyline points="318.53,54.91 294.26,90.83" fill="none" stroke="#cf786e" stroke-width="1" opacity="0.5"/><polyline points="332.81,119.18 309.09,147.93" fill="none" stroke="#cf786e" stroke-width="1" opacity="0.5"/><circle cx="351.95" cy="84.12" r="4.14" fill="#cf786e" opacity="1"/><polyline points="351.95,84.12 294.26,90.83" fill="none" stroke="#cf786e" stroke-width="1" opacity="0.5"/><circle cx="294.26" cy="90.83" r="4.14" fill="#cf786e" opacity="1"/><polyline points="294.26,90.83 309.09,147.93" fill="none" stroke="#cf786e" stroke-width="1" opacity="0.5"/><polyline points="332.81,119.18 367.66,132.97" fill="none" stroke="#cf786e" stroke-width="1" opacity="0.5"/><circle cx="309.09" cy="147.93" r="4.17" fill="#cf786e" opacity="1"/><polyline points="338.12,39.54 318.53,54.91" fill="none" stroke="#cf786e" stroke-width="1" opacity="0.5"/><polyline points="332.81,119.18 344.40,175.29" fill="none" stroke="#cf786e" stroke-width="1" opacity="0.5"/><polyline points="338.12,39.54 351.95,84.12" fill="none" stroke="#cf786e" stroke-width="1" opacity="0.5"/><polyline points="351.95,84.12 367.66,132.97" fill="none" stroke="#cf786e" stroke-width="1" opacity="0.5"/><polyline points="367.66,132.97 309.09,147.93" fill="none" stroke="#cf786e" stroke-width="1" opacity="0.5"/><polyline points="309.09,147.93 344.40,175.29" fill="none" stroke="#cf786e" stroke-width="1" opacity="0.5"/><polyline points="373.67,90.59 332.81,119.18" fill="none" stroke="#cf786e" stroke-width="1" opacity="0.5"/><polyline points="318.53,54.91 285.69,69.28" fill="none" stroke="#cf786e" stroke-width="1" opacity="0.5"/><polyline points="294.26,90.83 279.20,128.64" fill="none" stroke="#cf786e" stroke-width="1" opacity="0.5"/><polyline points="285.69,69.28 294.26,90.83" fill="none" stroke="#cf786e" stroke-width="1" opacity="0.5"/><circle cx="338.12" cy="39.54" r="4.23" fill="#cf786e" opacity="1"/><polyline points="351.95,84.12 373.67,90.59" fill="none" stroke="#cf786e" stroke-width="1" opacity="0.5"/><polyline points="279.20,128.64 309.09,147.93" fill="none" stroke="#cf786e" stroke-width="1" opacity="0.5"/><polyline points="311.60,36.75 318.53,54.91" fill="none" stroke="#cf786e" stroke-width="1" opacity="0.5"/><circle cx="367.66" cy="132.97" r="4.24" fill="#cf786e" opacity="1"/><polyline points="367.66,132.97 344.40,175.29" fill="none" stroke="#cf786e" stroke-width="1" opacity="0.5"/><polyline points="318.53,54.91 354.62,54.68" fill="none" stroke="#cf786e" stroke-width="1" opacity="0.5"/><circle cx="344.40" cy="175.29" r="4.25" fill="#cf786e" opacity="1"/><polyline points="354.62,54.68 351.95,84.12" fill="none" stroke="#cf786e" stroke-width="1" opacity="0.5"/><polyline points="309.09,147.93 306.92,181.07" fill="none" stroke="#cf786e" stroke-width="1" opacity="0.5"/><polyline points="373.67,90.59 367.66,132.97" fill="none" stroke="#cf786e" stroke-width="1" opacity="0.5"/><polyline points="309.09,147.93 342.93,188.44" fill="none" stroke="#cf786e" stroke-width="1" opacity="0.5"/><polyline points="338.12,39.54 311.60,36.75" fill="none" stroke="#cf786e" stroke-width="1" opacity="0.5"/><polyline points="344.40,175.29 306.92,181.07" fill="none" stroke="#cf786e" stroke-width="1" opacity="0.5"/><circle cx="279.20" cy="128.64" r="4.31" fill="#cf786e" opacity="1"/><polyline points="137.14,145.92 309.09,147.93" fill="none" stroke="#a8bcc8" stroke-width="1" opacity="0.35"/><polyline points="338.12,39.54 354.62,54.68" fill="none" stroke="#cf786e" stroke-width="1" opacity="0.5"/><polyline points="285.69,69.28 279.20,128.64" fill="none" stroke="#cf786e" stroke-width="1" opacity="0.5"/><polyline points="294.26,90.83 286.52,95.81" fill="none" stroke="#cf786e" stroke-width="1" opacity="0.5"/><circle cx="285.69" cy="69.28" r="4.33" fill="#cf786e" opacity="1"/><polyline points="309.09,147.93 288.58,165.70" fill="none" stroke="#cf786e" stroke-width="1" opacity="0.5"/><circle cx="373.67" cy="90.59" r="4.33" fill="#cf786e" opacity="1"/><polyline points="279.20,128.64 306.92,181.07" fill="none" stroke="#cf786e" stroke-width="1" opacity="0.5"/><polyline points="344.40,175.29 342.93,188.44" fill="none" stroke="#cf786e" stroke-width="1" opacity="0.5"/><polyline points="311.60,36.75 285.69,69.28" fill="none" stroke="#cf786e" stroke-width="1" opacity="0.5"/><circle cx="306.92" cy="181.07" r="4.36" fill="#cf786e" opacity="1"/><polyline points="354.62,54.68 373.67,90.59" fill="none" stroke="#cf786e" stroke-width="1" opacity="0.5"/><circle cx="165.87" cy="109.63" r="4.37" fill="#548fbc" opacity="1"/><polyline points="367.66,132.97 368.09,154.46" fill="none" stroke="#cf786e" stroke-width="1" opacity="0.5"/><polyline points="368.09,154.46 344.40,175.29" fill="none" stroke="#cf786e" stroke-width="1" opacity="0.5"/><polyline points="165.55,26.86 338.12,39.54" fill="none" stroke="#a8bcc8" stroke-width="1" opacity="0.35"/><circle cx="311.60" cy="36.75" r="4.38" fill="#cf786e" opacity="1"/><polyline points="149.76,47.87 165.87,109.63" fill="none" stroke="#548fbc" stroke-width="1" opacity="0.5"/><polyline points="311.60,36.75 354.62,54.68" fill="none" stroke="#cf786e" stroke-width="1" opacity="0.5"/><polyline points="184.55,70.20 165.87,109.63" fill="none" stroke="#548fbc" stroke-width="1" opacity="0.5"/><polyline points="171.56,168.14 344.40,175.29" fill="none" stroke="#a8bcc8" stroke-width="1" opacity="0.35"/><circle cx="149.76" cy="47.87" r="4.39" fill="#548fbc" opacity="1"/><polyline points="306.92,181.07 342.93,188.44" fill="none" stroke="#cf786e" stroke-width="1" opacity="0.5"/><polyline points="122.55,84.98 165.87,109.63" fill="none" stroke="#548fbc" stroke-width="1" opacity="0.5"/><polyline points="338.12,39.54 326.96,73.94" fill="none" stroke="#cf786e" stroke-width="1" opacity="0.5"/><circle cx="354.62" cy="54.68" r="4.40" fill="#cf786e" opacity="1"/><polyline points="149.76,47.87 184.55,70.20" fill="none" stroke="#548fbc" stroke-width="1" opacity="0.5"/><polyline points="279.20,128.64 288.58,165.70" fill="none" stroke="#cf786e" stroke-width="1" opacity="0.5"/><circle cx="184.55" cy="70.20" r="4.41" fill="#548fbc" opacity="1"/><polyline points="149.76,47.87 122.55,84.98" fill="none" stroke="#548fbc" stroke-width="1" opacity="0.5"/><polyline points="286.52,95.81 279.20,128.64" fill="none" stroke="#cf786e" stroke-width="1" opacity="0.5"/><polyline points="165.87,109.63 137.14,145.92" fill="none" stroke="#548fbc" stroke-width="1" opacity="0.5"/><polyline points="355.96,116.65 367.66,132.97" fill="none" stroke="#cf786e" stroke-width="1" opacity="0.5"/><polyline points="184.55,70.20 122.55,84.98" fill="none" stroke="#548fbc" stroke-width="1" opacity="0.5"/><polyline points="285.69,69.28 286.52,95.81" fill="none" stroke="#cf786e" stroke-width="1" opacity="0.5"/><polyline points="344.40,175.29 336.07,174.50" fill="none" stroke="#cf786e" stroke-width="1" opacity="0.5"/><circle cx="122.55" cy="84.98" r="4.43" fill="#548fbc" opacity="1"/><polyline points="288.58,165.70 306.92,181.07" fill="none" stroke="#cf786e" stroke-width="1" opacity="0.5"/><circle cx="342.93" cy="188.44" r="4.43" fill="#cf786e" opacity="1"/><polyline points="122.55,84.98 137.14,145.92" fill="none" stroke="#548fbc" stroke-width="1" opacity="0.5"/><polyline points="285.69,69.28 326.96,73.94" fill="none" stroke="#cf786e" stroke-width="1" opacity="0.5"/><polyline points="326.96,73.94 373.67,90.59" fill="none" stroke="#cf786e" stroke-width="1" opacity="0.5"/><polyline points="165.87,109.63 196.69,128.75" fill="none" stroke="#548fbc" stroke-width="1" opacity="0.5"/><polyline points="165.87,109.63 171.56,168.14" fill="none" stroke="#548fbc" stroke-width="1" opacity="0.5"/><polyline points="99.29,119.25 279.20,128.64" fill="none" stroke="#a8bcc8" stroke-width="1" opacity="0.35"/><polyline points="165.55,26.86 149.76,47.87" fill="none" stroke="#548fbc" stroke-width="1" opacity="0.5"/><circle cx="137.14" cy="145.92" r="4.46" fill="#548fbc" opacity="1"/><polyline points="373.67,90.59 355.96,116.65" fill="none" stroke="#cf786e" stroke-width="1" opacity="0.5"/><polyline points="288.58,165.70 342.93,188.44" fill="none" stroke="#cf786e" stroke-width="1" opacity="0.5"/><polyline points="368.09,154.46 342.93,188.44" fill="none" stroke="#cf786e" stroke-width="1" opacity="0.5"/><polyline points="165.55,26.86 184.55,70.20" fill="none" stroke="#548fbc" stroke-width="1" opacity="0.5"/><polyline points="279.20,128.64 311.15,129.48" fill="none" stroke="#cf786e" stroke-width="1" opacity="0.5"/><polyline points="311.60,36.75 326.96,73.94" fill="none" stroke="#cf786e" stroke-width="1" opacity="0.5"/><polyline points="184.55,70.20 196.69,128.75" fill="none" stroke="#548fbc" stroke-width="1" opacity="0.5"/><polyline points="354.62,54.68 326.96,73.94" fill="none" stroke="#cf786e" stroke-width="1" opacity="0.5"/><polyline points="336.07,174.50 306.92,181.07" fill="none" stroke="#cf786e" stroke-width="1" opacity="0.5"/><circle cx="288.58" cy="165.70" r="4.50" fill="#cf786e" opacity="1"/><polyline points="196.69,128.75 137.14,145.92" fill="none" stroke="#548fbc" stroke-width="1" opacity="0.5"/><polyline points="137.14,145.92 171.56,168.14" fill="none" stroke="#548fbc" stroke-width="1" opacity="0.5"/><circle cx="368.09" cy="154.46" r="4.50" fill="#cf786e" opacity="1"/><polyline points="199.14,86.11 165.87,109.63" fill="none" stroke="#548fbc" stroke-width="1" opacity="0.5"/><polyline points="149.76,47.87 105.62,54.66" fill="none" stroke="#548fbc" stroke-width="1" opacity="0.5"/><circle cx="286.52" cy="95.81" r="4.51" fill="#cf786e" opacity="1"/><polyline points="122.55,84.98 99.29,119.25" fill="none" stroke="#548fbc" stroke-width="1" opacity="0.5"/><polyline points="336.07,174.50 342.93,188.44" fill="none" stroke="#cf786e" stroke-width="1" opacity="0.5"/><polyline points="105.62,54.66 122.55,84.98" fill="none" stroke="#548fbc" stroke-width="1" opacity="0.5"/><circle cx="165.55" cy="26.86" r="4.52" fill="#548fbc" opacity="1"/><polyline points="184.55,70.20 199.14,86.11" fill="none" stroke="#548fbc" stroke-width="1" opacity="0.5"/><polyline points="99.29,119.25 137.14,145.92" fill="none" stroke="#548fbc" stroke-width="1" opacity="0.5"/><circle cx="196.69" cy="128.75" r="4.54" fill="#548fbc" opacity="1"/><polyline points="196.69,128.75 171.56,168.14" fill="none" stroke="#548fbc" stroke-width="1" opacity="0.5"/><polyline points="130.73,27.57 149.76,47.87" fill="none" stroke="#548fbc" stroke-width="1" opacity="0.5"/><circle cx="171.56" cy="168.14" r="4.54" fill="#548fbc" opacity="1"/><polyline points="326.96,73.94 286.52,95.81" fill="none" stroke="#cf786e" stroke-width="1" opacity="0.5"/><polyline points="149.76,47.87 176.13,43.26" fill="none" stroke="#548fbc" stroke-width="1" opacity="0.5"/><polyline points="355.96,116.65 368.09,154.46" fill="none" stroke="#cf786e" stroke-width="1" opacity="0.5"/><polyline points="176.13,43.26 354.62,54.68" fill="none" stroke="#a8bcc8" stroke-width="1" opacity="0.35"/><polyline points="288.58,165.70 336.07,174.50" fill="none" stroke="#cf786e" stroke-width="1" opacity="0.5"/><polyline points="368.09,154.46 336.07,174.50" fill="none" stroke="#cf786e" stroke-width="1" opacity="0.5"/><polyline points="176.13,43.26 184.55,70.20" fill="none" stroke="#548fbc" stroke-width="1" opacity="0.5"/><polyline points="137.14,145.92 126.49,182.70" fill="none" stroke="#548fbc" stroke-width="1" opacity="0.5"/><polyline points="311.15,129.48 288.58,165.70" fill="none" stroke="#cf786e" stroke-width="1" opacity="0.5"/><circle cx="326.96" cy="73.94" r="4.57" fill="#cf786e" opacity="1"/><polyline points="165.55,26.86 105.62,54.66" fill="none" stroke="#548fbc" stroke-width="1" opacity="0.5"/><polyline points="286.52,95.81 311.15,129.48" fill="none" stroke="#cf786e" stroke-width="1" opacity="0.5"/><polyline points="326.96,73.94 355.96,116.65" fill="none" stroke="#cf786e" stroke-width="1" opacity="0.5"/><polyline points="162.00,190.23 342.93,188.44" fill="none" stroke="#a8bcc8" stroke-width="1" opacity="0.35"/><polyline points="199.14,86.11 196.69,128.75" fill="none" stroke="#548fbc" stroke-width="1" opacity="0.5"/><circle cx="355.96" cy="116.65" r="4.60" fill="#cf786e" opacity="1"/><polyline points="137.14,145.92 162.00,190.23" fill="none" stroke="#548fbc" stroke-width="1" opacity="0.5"/><polyline points="355.96,116.65 336.07,174.50" fill="none" stroke="#cf786e" stroke-width="1" opacity="0.5"/><polyline points="326.96,73.94 311.15,129.48" fill="none" stroke="#cf786e" stroke-width="1" opacity="0.5"/><polyline points="171.56,168.14 126.49,182.70" fill="none" stroke="#548fbc" stroke-width="1" opacity="0.5"/><polyline points="165.55,26.86 130.73,27.57" fill="none" stroke="#548fbc" stroke-width="1" opacity="0.5"/><circle cx="99.29" cy="119.25" r="4.61" fill="#548fbc" opacity="1"/><circle cx="336.07" cy="174.50" r="4.61" fill="#cf786e" opacity="1"/><polyline points="165.55,26.86 176.13,43.26" fill="none" stroke="#548fbc" stroke-width="1" opacity="0.5"/><polyline points="105.62,54.66 99.29,119.25" fill="none" stroke="#548fbc" stroke-width="1" opacity="0.5"/><polyline points="355.96,116.65 311.15,129.48" fill="none" stroke="#cf786e" stroke-width="1" opacity="0.5"/><circle cx="105.62" cy="54.66" r="4.62" fill="#548fbc" opacity="1"/><polyline points="311.15,129.48 336.07,174.50" fill="none" stroke="#cf786e" stroke-width="1" opacity="0.5"/><polyline points="122.55,84.98 97.84,88.50" fill="none" stroke="#548fbc" stroke-width="1" opacity="0.5"/><polyline points="137.14,145.92 101.12,156.31" fill="none" stroke="#548fbc" stroke-width="1" opacity="0.5"/><circle cx="311.15" cy="129.48" r="4.64" fill="#cf786e" opacity="1"/><polyline points="171.56,168.14 162.00,190.23" fill="none" stroke="#548fbc" stroke-width="1" opacity="0.5"/><circle cx="199.14" cy="86.11" r="4.65" fill="#548fbc" opacity="1"/><polyline points="130.73,27.57 105.62,54.66" fill="none" stroke="#548fbc" stroke-width="1" opacity="0.5"/><circle cx="126.49" cy="182.70" r="4.67" fill="#548fbc" opacity="1"/><polyline points="97.84,88.50 286.52,95.81" fill="none" stroke="#a8bcc8" stroke-width="1" opacity="0.35"/><polyline points="196.69,128.75 186.14,147.80" fill="none" stroke="#548fbc" stroke-width="1" opacity="0.5"/><polyline points="176.13,43.26 199.14,86.11" fill="none" stroke="#548fbc" stroke-width="1" opacity="0.5"/><polyline points="186.14,147.80 171.56,168.14" fill="none" stroke="#548fbc" stroke-width="1" opacity="0.5"/><circle cx="130.73" cy="27.57" r="4.69" fill="#548fbc" opacity="1"/><polyline points="130.73,27.57 176.13,43.26" fill="none" stroke="#548fbc" stroke-width="1" opacity="0.5"/><polyline points="165.55,26.86 138.92,61.27" fill="none" stroke="#548fbc" stroke-width="1" opacity="0.5"/><polyline points="99.29,119.25 101.12,156.31" fill="none" stroke="#548fbc" stroke-width="1" opacity="0.5"/><circle cx="176.13" cy="43.26" r="4.71" fill="#548fbc" opacity="1"/><polyline points="126.49,182.70 162.00,190.23" fill="none" stroke="#548fbc" stroke-width="1" opacity="0.5"/><polyline points="97.84,88.50 99.29,119.25" fill="none" stroke="#548fbc" stroke-width="1" opacity="0.5"/><polyline points="168.92,103.23 196.69,128.75" fill="none" stroke="#548fbc" stroke-width="1" opacity="0.5"/><polyline points="138.92,61.27 326.96,73.94" fill="none" stroke="#a8bcc8" stroke-width="1" opacity="0.35"/><polyline points="105.62,54.66 97.84,88.50" fill="none" stroke="#548fbc" stroke-width="1" opacity="0.5"/><polyline points="199.14,86.11 186.14,147.80" fill="none" stroke="#548fbc" stroke-width="1" opacity="0.5"/><polyline points="171.56,168.14 146.86,171.55" fill="none" stroke="#548fbc" stroke-width="1" opacity="0.5"/><polyline points="101.12,156.31 126.49,182.70" fill="none" stroke="#548fbc" stroke-width="1" opacity="0.5"/><circle cx="162.00" cy="190.23" r="4.76" fill="#548fbc" opacity="1"/><polyline points="105.62,54.66 138.92,61.27" fill="none" stroke="#548fbc" stroke-width="1" opacity="0.5"/><polyline points="199.14,86.11 168.92,103.23" fill="none" stroke="#548fbc" stroke-width="1" opacity="0.5"/><polyline points="101.12,156.31 162.00,190.23" fill="none" stroke="#548fbc" stroke-width="1" opacity="0.5"/><polyline points="186.14,147.80 162.00,190.23" fill="none" stroke="#548fbc" stroke-width="1" opacity="0.5"/><polyline points="99.29,119.25 118.51,127.67" fill="none" stroke="#548fbc" stroke-width="1" opacity="0.5"/><polyline points="130.73,27.57 138.92,61.27" fill="none" stroke="#548fbc" stroke-width="1" opacity="0.5"/><polyline points="176.13,43.26 138.92,61.27" fill="none" stroke="#548fbc" stroke-width="1" opacity="0.5"/><polyline points="146.86,171.55 126.49,182.70" fill="none" stroke="#548fbc" stroke-width="1" opacity="0.5"/><circle cx="101.12" cy="156.31" r="4.82" fill="#548fbc" opacity="1"/><polyline points="176.13,43.26 168.92,103.23" fill="none" stroke="#548fbc" stroke-width="1" opacity="0.5"/><circle cx="186.14" cy="147.80" r="4.83" fill="#548fbc" opacity="1"/><polyline points="97.84,88.50 101.12,156.31" fill="none" stroke="#548fbc" stroke-width="1" opacity="0.5"/><circle cx="97.84" cy="88.50" r="4.85" fill="#548fbc" opacity="1"/><polyline points="146.86,171.55 162.00,190.23" fill="none" stroke="#548fbc" stroke-width="1" opacity="0.5"/><polyline points="138.92,61.27 97.84,88.50" fill="none" stroke="#548fbc" stroke-width="1" opacity="0.5"/><polyline points="168.92,103.23 186.14,147.80" fill="none" stroke="#548fbc" stroke-width="1" opacity="0.5"/><polyline points="101.12,156.31 146.86,171.55" fill="none" stroke="#548fbc" stroke-width="1" opacity="0.5"/><polyline points="186.14,147.80 146.86,171.55" fill="none" stroke="#548fbc" stroke-width="1" opacity="0.5"/><polyline points="118.51,127.67 101.12,156.31" fill="none" stroke="#548fbc" stroke-width="1" opacity="0.5"/><circle cx="138.92" cy="61.27" r="4.91" fill="#548fbc" opacity="1"/><polyline points="118.51,127.67 186.14,147.80" fill="none" stroke="#548fbc" stroke-width="1" opacity="0.5"/><polyline points="138.92,61.27 168.92,103.23" fill="none" stroke="#548fbc" stroke-width="1" opacity="0.5"/><polyline points="97.84,88.50 118.51,127.67" fill="none" stroke="#548fbc" stroke-width="1" opacity="0.5"/><circle cx="168.92" cy="103.23" r="4.93" fill="#548fbc" opacity="1"/><polyline points="168.92,103.23 146.86,171.55" fill="none" stroke="#548fbc" stroke-width="1" opacity="0.5"/><polyline points="138.92,61.27 118.51,127.67" fill="none" stroke="#548fbc" stroke-width="1" opacity="0.5"/><circle cx="146.86" cy="171.55" r="4.96" fill="#548fbc" opacity="1"/><polyline points="168.92,103.23 118.51,127.67" fill="none" stroke="#548fbc" stroke-width="1" opacity="0.5"/><polyline points="118.51,127.67 146.86,171.55" fill="none" stroke="#548fbc" stroke-width="1" opacity="0.5"/><circle cx="118.51" cy="127.67" r="5.00" fill="#548fbc" opacity="1"/></svg>