<svg xmlns="http://www.w3.org/2000/svg" viewBox="0 0 480 220"><polyline points="103.31,183.24 314.50,184.43" fill="none" stroke="#a8bcc8" stroke-width="1" opacity="0.16"/><polyline points="102.05,182.53 324.95,183.86" fill="none" stroke="#a8bcc8" stroke-width="1" opacity="0.16"/><polyline points="100.61,181.72 336.61,183.22" fill="none" stroke="#a8bcc8" stroke-width="1" opacity="0.16"/><polyline points="306.70,126.21 310.52,126.23" fill="none" stroke="#8b75b6" stroke-width="1" opacity="0.25"/><polyline points="310.52,126.23 314.40,126.19" fill="none" stroke="#8b75b6" stroke-width="1" opacity="0.25"/><polyline points="303.00,126.11 306.70,126.21" fill="none" stroke="#8b75b6" stroke-width="1" opacity="0.25"/><polyline points="314.40,126.19 318.30,126.07" fill="none" stroke="#8b75b6" stroke-width="1" opacity="0.25"/><polyline points="299.47,125.94 303.00,126.11" fill="none" stroke="#8b75b6" stroke-width="1" opacity="0.25"/><polyline points="318.30,126.07 322.15,125.87" fill="none" stroke="#8b75b6" stroke-width="1" opacity="0.25"/><polyline points="246.49,75.71 250.35,75.76" fill="none" stroke="#629c7e" stroke-width="1" opacity="0.25"/><polyline points="296.16,125.71 299.47,125.94" fill="none" stroke="#8b75b6" stroke-width="1" opacity="0.25"/><polyline points="250.35,75.76 254.21,75.67" fill="none" stroke="#629c7e" stroke-width="1" opacity="0.25"/><polyline points="242.68,75.55 246.49,75.71" fill="none" stroke="#629c7e" stroke-width="1" opacity="0.25"/><polyline points="322.15,125.87 325.90,125.61" fill="none" stroke="#8b75b6" stroke-width="1" opacity="0.25"/><circle cx="301.34" cy="110.10" r="1.48" fill="#8b75b6" opacity="1"/><polyline points="254.21,75.67 258.03,75.46" fill="none" stroke="#629c7e" stroke-width="1" opacity="0.25"/><polyline points="238.99,75.25 242.68,75.55" fill="none" stroke="#629c7e" stroke-width="1" opacity="0.25"/><polyline points="258.03,75.46 261.73,75.13" fill="none" stroke="#629c7e" stroke-width="1" opacity="0.25"/><polyline points="293.13,125.40 296.16,125.71" fill="none" stroke="#8b75b6" stroke-width="1" opacity="0.25"/><polyline points="325.90,125.61 329.50,125.29" fill="none" stroke="#8b75b6" stroke-width="1" opacity="0.25"/><polyline points="235.45,74.84 238.99,75.25" fill="none" stroke="#629c7e" stroke-width="1" opacity="0.25"/><polyline points="261.73,75.13 265.27,74.67" fill="none" stroke="#629c7e" stroke-width="1" opacity="0.25"/><circle cx="240.68" cy="59.16" r="1.49" fill="#629c7e" opacity="1"/><polyline points="290.41,125.03 293.13,125.40" fill="none" stroke="#8b75b6" stroke-width="1" opacity="0.25"/><polyline points="232.13,74.30 235.45,74.84" fill="none" stroke="#629c7e" stroke-width="1" opacity="0.25"/><polyline points="329.50,125.29 332.89,124.90" fill="none" stroke="#8b75b6" stroke-width="1" opacity="0.25"/><circle cx="323.14" cy="113.82" r="1.50" fill="#8b75b6" opacity="1"/><polyline points="265.27,74.67 268.61,74.10" fill="none" stroke="#629c7e" stroke-width="1" opacity="0.25"/><polyline points="165.55,124.89 169.49,124.91" fill="none" stroke="#548fbc" stroke-width="1" opacity="0.25"/><polyline points="169.49,124.91 173.35,124.86" fill="none" stroke="#548fbc" stroke-width="1" opacity="0.25"/><polyline points="161.58,124.79 165.55,124.89" fill="none" stroke="#548fbc" stroke-width="1" opacity="0.25"/><circle cx="314.78" cy="108.29" r="1.50" fill="#8b75b6" opacity="1"/><polyline points="288.06,124.61 290.41,125.03" fill="none" stroke="#8b75b6" stroke-width="1" opacity="0.25"/><polyline points="229.07,73.66 232.13,74.30" fill="none" stroke="#629c7e" stroke-width="1" opacity="0.25"/><polyline points="173.35,124.86 177.07,124.74" fill="none" stroke="#548fbc" stroke-width="1" opacity="0.25"/><polyline points="157.63,124.61 161.58,124.79" fill="none" stroke="#548fbc" stroke-width="1" opacity="0.25"/><polyline points="268.61,74.10 271.67,73.42" fill="none" stroke="#629c7e" stroke-width="1" opacity="0.25"/><polyline points="332.89,124.90 336.02,124.45" fill="none" stroke="#8b75b6" stroke-width="1" opacity="0.25"/><circle cx="262.02" cy="62.40" r="1.50" fill="#629c7e" opacity="1"/><circle cx="306.78" cy="127.20" r="1.50" fill="#8b75b6" opacity="1"/><polyline points="177.07,124.74 180.59,124.54" fill="none" stroke="#548fbc" stroke-width="1" opacity="0.25"/><circle cx="313.88" cy="132.91" r="1.50" fill="#8b75b6" opacity="1"/><circle cx="301.18" cy="139.41" r="1.51" fill="#8b75b6" opacity="1"/><polyline points="153.76,124.36 157.63,124.61" fill="none" stroke="#548fbc" stroke-width="1" opacity="0.25"/><circle cx="332.94" cy="119.27" r="1.51" fill="#8b75b6" opacity="1"/><circle cx="253.40" cy="56.67" r="1.51" fill="#629c7e" opacity="1"/><polyline points="226.33,72.91 229.07,73.66" fill="none" stroke="#629c7e" stroke-width="1" opacity="0.25"/><circle cx="299.85" cy="102.32" r="1.51" fill="#8b75b6" opacity="1"/><polyline points="180.59,124.54 183.87,124.27" fill="none" stroke="#548fbc" stroke-width="1" opacity="0.25"/><circle cx="159.10" cy="108.45" r="1.51" fill="#548fbc" opacity="1"/><polyline points="286.12,124.12 288.06,124.61" fill="none" stroke="#8b75b6" stroke-width="1" opacity="0.25"/><polyline points="271.67,73.42 274.43,72.64" fill="none" stroke="#629c7e" stroke-width="1" opacity="0.25"/><circle cx="245.20" cy="75.56" r="1.51" fill="#629c7e" opacity="1"/><circle cx="252.31" cy="81.27" r="1.51" fill="#629c7e" opacity="1"/><polyline points="150.02,124.05 153.76,124.36" fill="none" stroke="#548fbc" stroke-width="1" opacity="0.25"/><circle cx="293.79" cy="131.61" r="1.51" fill="#8b75b6" opacity="1"/><polyline points="336.02,124.45 338.83,123.95" fill="none" stroke="#8b75b6" stroke-width="1" opacity="0.25"/><circle cx="239.51" cy="87.80" r="1.51" fill="#629c7e" opacity="1"/><circle cx="301.72" cy="121.81" r="1.51" fill="#8b75b6" opacity="1"/><polyline points="183.87,124.27 186.86,123.93" fill="none" stroke="#548fbc" stroke-width="1" opacity="0.25"/><circle cx="271.34" cy="67.43" r="1.52" fill="#629c7e" opacity="1"/><circle cx="238.01" cy="50.35" r="1.52" fill="#629c7e" opacity="1"/><circle cx="310.24" cy="147.34" r="1.52" fill="#8b75b6" opacity="1"/><polyline points="223.95,72.07 226.33,72.91" fill="none" stroke="#629c7e" stroke-width="1" opacity="0.25"/><circle cx="320.77" cy="138.95" r="1.52" fill="#8b75b6" opacity="1"/><polyline points="284.62,123.60 286.12,124.12" fill="none" stroke="#8b75b6" stroke-width="1" opacity="0.25"/><circle cx="317.08" cy="123.40" r="1.52" fill="#8b75b6" opacity="1"/><polyline points="146.48,123.66 150.02,124.05" fill="none" stroke="#548fbc" stroke-width="1" opacity="0.25"/><circle cx="231.74" cy="79.66" r="1.52" fill="#629c7e" opacity="1"/><polyline points="274.43,72.64 276.82,71.77" fill="none" stroke="#629c7e" stroke-width="1" opacity="0.25"/><circle cx="239.67" cy="69.77" r="1.52" fill="#629c7e" opacity="1"/><circle cx="312.20" cy="120.07" r="1.52" fill="#8b75b6" opacity="1"/><polyline points="186.86,123.93 189.50,123.52" fill="none" stroke="#548fbc" stroke-width="1" opacity="0.25"/><circle cx="179.91" cy="112.23" r="1.52" fill="#548fbc" opacity="1"/><polyline points="338.83,123.95 341.28,123.41" fill="none" stroke="#8b75b6" stroke-width="1" opacity="0.25"/><circle cx="311.22" cy="102.32" r="1.53" fill="#8b75b6" opacity="1"/><circle cx="248.08" cy="95.33" r="1.53" fill="#629c7e" opacity="1"/><circle cx="322.81" cy="127.16" r="1.53" fill="#8b75b6" opacity="1"/><circle cx="258.60" cy="86.82" r="1.53" fill="#629c7e" opacity="1"/><circle cx="170.90" cy="106.59" r="1.53" fill="#548fbc" opacity="1"/><polyline points="221.97,71.15 223.95,72.07" fill="none" stroke="#629c7e" stroke-width="1" opacity="0.25"/><circle cx="254.86" cy="71.15" r="1.53" fill="#629c7e" opacity="1"/><polyline points="143.18,123.22 146.48,123.66" fill="none" stroke="#548fbc" stroke-width="1" opacity="0.25"/><circle cx="299.97" cy="116.89" r="1.53" fill="#8b75b6" opacity="1"/><polyline points="283.60,123.03 284.62,123.60" fill="none" stroke="#8b75b6" stroke-width="1" opacity="0.25"/><circle cx="249.83" cy="67.70" r="1.53" fill="#629c7e" opacity="1"/><circle cx="320.06" cy="107.52" r="1.53" fill="#8b75b6" opacity="1"/><polyline points="189.50,123.52 191.76,123.06" fill="none" stroke="#548fbc" stroke-width="1" opacity="0.25"/><circle cx="162.38" cy="125.87" r="1.53" fill="#548fbc" opacity="1"/><polyline points="276.82,71.77 278.81,70.83" fill="none" stroke="#629c7e" stroke-width="1" opacity="0.25"/><circle cx="290.21" cy="124.02" r="1.53" fill="#8b75b6" opacity="1"/><circle cx="169.53" cy="131.68" r="1.53" fill="#548fbc" opacity="1"/><circle cx="156.53" cy="138.32" r="1.54" fill="#548fbc" opacity="1"/><circle cx="248.75" cy="49.77" r="1.54" fill="#629c7e" opacity="1"/><circle cx="327.92" cy="111.00" r="1.54" fill="#8b75b6" opacity="1"/><polyline points="98.98,180.79 349.71,182.49" fill="none" stroke="#a8bcc8" stroke-width="1" opacity="0.16"/><polyline points="341.28,123.41 343.32,122.83" fill="none" stroke="#8b75b6" stroke-width="1" opacity="0.25"/><circle cx="260.33" cy="74.69" r="1.54" fill="#629c7e" opacity="1"/><circle cx="341.41" cy="124.98" r="1.54" fill="#8b75b6" opacity="1"/><circle cx="188.63" cy="117.77" r="1.54" fill="#548fbc" opacity="1"/><polyline points="314.50,184.43 450.20,176.96" fill="none" stroke="#a8bcc8" stroke-width="1" opacity="0.16"/><circle cx="154.78" cy="100.48" r="1.54" fill="#548fbc" opacity="1"/><polyline points="140.19,122.72 143.18,123.22" fill="none" stroke="#548fbc" stroke-width="1" opacity="0.25"/><circle cx="237.19" cy="64.21" r="1.54" fill="#629c7e" opacity="1"/><polyline points="220.44,70.16 221.97,71.15" fill="none" stroke="#629c7e" stroke-width="1" opacity="0.25"/><circle cx="257.36" cy="54.76" r="1.54" fill="#629c7e" opacity="1"/><circle cx="227.28" cy="71.31" r="1.54" fill="#629c7e" opacity="1"/><circle cx="148.18" cy="130.35" r="1.54" fill="#548fbc" opacity="1"/><polyline points="191.76,123.06 193.59,122.54" fill="none" stroke="#548fbc" stroke-width="1" opacity="0.25"/><circle cx="327.51" cy="131.44" r="1.54" fill="#8b75b6" opacity="1"/><circle cx="156.17" cy="120.36" r="1.54" fill="#548fbc" opacity="1"/><circle cx="265.15" cy="58.16" r="1.54" fill="#629c7e" opacity="1"/><polyline points="283.08,122.43 283.60,123.03" fill="none" stroke="#8b75b6" stroke-width="1" opacity="0.25"/><polyline points="278.81,70.83 280.34,69.81" fill="none" stroke="#629c7e" stroke-width="1" opacity="0.25"/><circle cx="278.67" cy="72.19" r="1.55" fill="#629c7e" opacity="1"/><circle cx="164.49" cy="146.40" r="1.55" fill="#548fbc" opacity="1"/><polyline points="343.32,122.83 344.90,122.22" fill="none" stroke="#8b75b6" stroke-width="1" opacity="0.25"/><circle cx="301.88" cy="112.74" r="1.55" fill="#8b75b6" opacity="1"/><circle cx="175.05" cy="137.84" r="1.55" fill="#548fbc" opacity="1"/><circle cx="323.44" cy="145.54" r="1.55" fill="#8b75b6" opacity="1"/><polyline points="137.55,122.17 140.19,122.72" fill="none" stroke="#548fbc" stroke-width="1" opacity="0.25"/><circle cx="171.21" cy="121.97" r="1.55" fill="#548fbc" opacity="1"/><circle cx="264.38" cy="78.43" r="1.55" fill="#629c7e" opacity="1"/><circle cx="304.25" cy="132.87" r="1.55" fill="#8b75b6" opacity="1"/><circle cx="165.95" cy="118.57" r="1.55" fill="#548fbc" opacity="1"/><polyline points="219.39,69.11 220.44,70.16" fill="none" stroke="#629c7e" stroke-width="1" opacity="0.25"/><polyline points="193.59,122.54 194.96,121.97" fill="none" stroke="#548fbc" stroke-width="1" opacity="0.25"/><circle cx="335.00" cy="114.51" r="1.56" fill="#8b75b6" opacity="1"/><circle cx="164.72" cy="100.47" r="1.56" fill="#548fbc" opacity="1"/><circle cx="316.25" cy="109.15" r="1.56" fill="#8b75b6" opacity="1"/><polyline points="283.10,121.80 283.08,122.43" fill="none" stroke="#8b75b6" stroke-width="1" opacity="0.25"/><circle cx="176.37" cy="125.80" r="1.56" fill="#548fbc" opacity="1"/><polyline points="280.34,69.81 281.40,68.75" fill="none" stroke="#629c7e" stroke-width="1" opacity="0.25"/><circle cx="291.22" cy="116.94" r="1.56" fill="#8b75b6" opacity="1"/><circle cx="238.37" cy="59.42" r="1.56" fill="#629c7e" opacity="1"/><circle cx="310.04" cy="138.19" r="1.56" fill="#8b75b6" opacity="1"/><circle cx="260.03" cy="92.40" r="1.56" fill="#629c7e" opacity="1"/><circle cx="307.18" cy="109.78" r="1.56" fill="#8b75b6" opacity="1"/><polyline points="316.25,109.15 314.49,121.70" fill="none" stroke="#8b75b6" stroke-width="1" opacity="0.28"/><circle cx="302.23" cy="127.88" r="1.56" fill="#8b75b6" opacity="1"/><polyline points="344.90,122.22 345.98,121.59" fill="none" stroke="#8b75b6" stroke-width="1" opacity="0.25"/><circle cx="152.67" cy="115.32" r="1.56" fill="#548fbc" opacity="1"/><circle cx="240.60" cy="79.54" r="1.56" fill="#629c7e" opacity="1"/><polyline points="135.31,121.58 137.55,122.17" fill="none" stroke="#548fbc" stroke-width="1" opacity="0.25"/><polyline points="290.48,184.30 411.72,176.56" fill="none" stroke="#a8bcc8" stroke-width="1" opacity="0.16"/><circle cx="173.07" cy="105.77" r="1.56" fill="#548fbc" opacity="1"/><circle cx="324.30" cy="110.70" r="1.56" fill="#8b75b6" opacity="1"/><circle cx="271.48" cy="61.02" r="1.56" fill="#629c7e" opacity="1"/><circle cx="142.50" cy="122.59" r="1.57" fill="#548fbc" opacity="1"/><polyline points="324.30,110.70 314.49,121.70" fill="none" stroke="#8b75b6" stroke-width="1" opacity="0.28"/><circle cx="180.81" cy="109.31" r="1.57" fill="#548fbc" opacity="1"/><circle cx="328.77" cy="136.52" r="1.57" fill="#8b75b6" opacity="1"/><circle cx="252.51" cy="55.54" r="1.57" fill="#629c7e" opacity="1"/><circle cx="314.49" cy="121.70" r="4.90" fill="#8b75b6" opacity="1"/><polyline points="218.86,68.02 219.39,69.11" fill="none" stroke="#629c7e" stroke-width="1" opacity="0.25"/><polyline points="194.96,121.97 195.82,121.37" fill="none" stroke="#548fbc" stroke-width="1" opacity="0.25"/><circle cx="194.46" cy="123.57" r="1.57" fill="#548fbc" opacity="1"/><circle cx="227.28" cy="63.34" r="1.57" fill="#629c7e" opacity="1"/><circle cx="246.18" cy="84.69" r="1.57" fill="#629c7e" opacity="1"/><circle cx="243.22" cy="56.04" r="1.57" fill="#629c7e" opacity="1"/><polyline points="283.65,121.17 283.10,121.80" fill="none" stroke="#8b75b6" stroke-width="1" opacity="0.25"/><circle cx="311.67" cy="103.80" r="1.57" fill="#8b75b6" opacity="1"/><polyline points="252.51,55.54 250.35,67.84" fill="none" stroke="#629c7e" stroke-width="1" opacity="0.28"/><circle cx="238.21" cy="74.22" r="1.57" fill="#629c7e" opacity="1"/><polyline points="281.40,68.75 281.94,67.65" fill="none" stroke="#629c7e" stroke-width="1" opacity="0.25"/><circle cx="260.34" cy="56.87" r="1.57" fill="#629c7e" opacity="1"/><polyline points="260.34,56.87 250.35,67.84" fill="none" stroke="#629c7e" stroke-width="1" opacity="0.28"/><polyline points="328.42,112.49 314.49,121.70" fill="none" stroke="#8b75b6" stroke-width="1" opacity="0.28"/><circle cx="179.55" cy="130.16" r="1.58" fill="#548fbc" opacity="1"/><circle cx="345.86" cy="131.46" r="1.58" fill="#8b75b6" opacity="1"/><polyline points="345.98,121.59 346.54,120.95" fill="none" stroke="#8b75b6" stroke-width="1" opacity="0.25"/><circle cx="264.73" cy="82.76" r="1.58" fill="#629c7e" opacity="1"/><polyline points="133.52,120.95 135.31,121.58" fill="none" stroke="#548fbc" stroke-width="1" opacity="0.25"/><circle cx="250.35" cy="67.84" r="4.93" fill="#629c7e" opacity="1"/><circle cx="302.98" cy="139.45" r="1.58" fill="#8b75b6" opacity="1"/><circle cx="325.11" cy="95.19" r="1.58" fill="#8b75b6" opacity="1"/><circle cx="296.34" cy="110.84" r="1.58" fill="#8b75b6" opacity="1"/><polyline points="311.62,148.50 314.49,121.70" fill="none" stroke="#8b75b6" stroke-width="1" opacity="0.28"/><polyline points="195.82,121.37 196.16,120.74" fill="none" stroke="#548fbc" stroke-width="1" opacity="0.25"/><polyline points="218.85,66.91 218.86,68.02" fill="none" stroke="#629c7e" stroke-width="1" opacity="0.25"/><circle cx="247.32" cy="49.68" r="1.58" fill="#629c7e" opacity="1"/><circle cx="152.85" cy="111.07" r="1.58" fill="#548fbc" opacity="1"/><circle cx="174.80" cy="144.54" r="1.58" fill="#548fbc" opacity="1"/><circle cx="328.42" cy="112.49" r="1.58" fill="#8b75b6" opacity="1"/><circle cx="321.99" cy="142.87" r="1.58" fill="#8b75b6" opacity="1"/><polyline points="263.68,58.00 250.35,67.84" fill="none" stroke="#629c7e" stroke-width="1" opacity="0.28"/><polyline points="284.75,120.53 283.65,121.17" fill="none" stroke="#8b75b6" stroke-width="1" opacity="0.25"/><circle cx="154.90" cy="131.61" r="1.59" fill="#548fbc" opacity="1"/><circle cx="339.33" cy="118.51" r="1.59" fill="#8b75b6" opacity="1"/><circle cx="281.54" cy="77.35" r="1.59" fill="#629c7e" opacity="1"/><polyline points="281.94,67.65 281.94,66.54" fill="none" stroke="#629c7e" stroke-width="1" opacity="0.25"/><circle cx="284.45" cy="126.79" r="1.59" fill="#8b75b6" opacity="1"/><circle cx="303.87" cy="106.24" r="1.59" fill="#8b75b6" opacity="1"/><circle cx="186.15" cy="112.87" r="1.59" fill="#548fbc" opacity="1"/><circle cx="326.86" cy="129.07" r="1.59" fill="#8b75b6" opacity="1"/><polyline points="329.13,115.02 314.49,121.70" fill="none" stroke="#8b75b6" stroke-width="1" opacity="0.28"/><circle cx="238.30" cy="85.31" r="1.59" fill="#629c7e" opacity="1"/><circle cx="260.57" cy="40.78" r="1.59" fill="#629c7e" opacity="1"/><circle cx="231.60" cy="56.51" r="1.59" fill="#629c7e" opacity="1"/><polyline points="246.41,93.93 250.35,67.84" fill="none" stroke="#629c7e" stroke-width="1" opacity="0.28"/><circle cx="166.76" cy="107.40" r="1.59" fill="#548fbc" opacity="1"/><polyline points="265.84,184.16 371.49,176.15" fill="none" stroke="#a8bcc8" stroke-width="1" opacity="0.16"/><polyline points="346.54,120.95 346.56,120.32" fill="none" stroke="#8b75b6" stroke-width="1" opacity="0.25"/><polyline points="132.22,120.30 133.52,120.95" fill="none" stroke="#548fbc" stroke-width="1" opacity="0.25"/><circle cx="141.10" cy="115.35" r="1.59" fill="#548fbc" opacity="1"/><circle cx="160.24" cy="137.03" r="1.59" fill="#548fbc" opacity="1"/><circle cx="311.62" cy="148.50" r="1.59" fill="#8b75b6" opacity="1"/><circle cx="300.56" cy="132.37" r="1.59" fill="#8b75b6" opacity="1"/><circle cx="263.68" cy="58.00" r="1.59" fill="#629c7e" opacity="1"/><circle cx="257.21" cy="88.57" r="1.59" fill="#629c7e" opacity="1"/><circle cx="157.13" cy="108.04" r="1.59" fill="#548fbc" opacity="1"/><polyline points="166.76,107.40 164.04,120.19" fill="none" stroke="#548fbc" stroke-width="1" opacity="0.28"/><circle cx="151.98" cy="126.50" r="1.59" fill="#548fbc" opacity="1"/><polyline points="196.16,120.74 195.96,120.08" fill="none" stroke="#548fbc" stroke-width="1" opacity="0.25"/><polyline points="219.40,65.80 218.85,66.91" fill="none" stroke="#629c7e" stroke-width="1" opacity="0.25"/><circle cx="274.58" cy="64.00" r="1.60" fill="#629c7e" opacity="1"/><circle cx="219.35" cy="72.32" r="1.60" fill="#629c7e" opacity="1"/><circle cx="238.87" cy="51.62" r="1.60" fill="#629c7e" opacity="1"/><circle cx="174.34" cy="108.97" r="1.60" fill="#548fbc" opacity="1"/><polyline points="306.57,138.95 314.49,121.70" fill="none" stroke="#8b75b6" stroke-width="1" opacity="0.28"/><circle cx="261.97" cy="74.57" r="1.60" fill="#629c7e" opacity="1"/><circle cx="323.40" cy="133.86" r="1.60" fill="#8b75b6" opacity="1"/><polyline points="263.38,59.70 250.35,67.84" fill="none" stroke="#629c7e" stroke-width="1" opacity="0.28"/><polyline points="174.34,108.97 164.04,120.19" fill="none" stroke="#548fbc" stroke-width="1" opacity="0.28"/><polyline points="325.96,118.71 314.49,121.70" fill="none" stroke="#8b75b6" stroke-width="1" opacity="0.28"/><polyline points="286.39,119.90 284.75,120.53" fill="none" stroke="#8b75b6" stroke-width="1" opacity="0.25"/><circle cx="178.64" cy="135.32" r="1.60" fill="#548fbc" opacity="1"/><circle cx="164.04" cy="120.19" r="5.00" fill="#548fbc" opacity="1"/><polyline points="281.94,66.54 281.40,65.43" fill="none" stroke="#629c7e" stroke-width="1" opacity="0.25"/><circle cx="246.41" cy="93.93" r="1.60" fill="#629c7e" opacity="1"/><circle cx="235.26" cy="77.67" r="1.60" fill="#629c7e" opacity="1"/><polyline points="346.56,120.32 346.01,119.69" fill="none" stroke="#8b75b6" stroke-width="1" opacity="0.25"/><polyline points="131.45,119.64 132.22,120.30" fill="none" stroke="#548fbc" stroke-width="1" opacity="0.25"/><circle cx="160.71" cy="101.92" r="1.60" fill="#548fbc" opacity="1"/><circle cx="315.93" cy="99.80" r="1.60" fill="#8b75b6" opacity="1"/><polyline points="311.89,130.67 314.49,121.70" fill="none" stroke="#8b75b6" stroke-width="1" opacity="0.28"/><polyline points="319.53,123.88 314.49,121.70" fill="none" stroke="#8b75b6" stroke-width="1" opacity="0.28"/><polyline points="239.93,83.14 250.35,67.84" fill="none" stroke="#629c7e" stroke-width="1" opacity="0.28"/><circle cx="258.07" cy="79.04" r="1.61" fill="#629c7e" opacity="1"/><polyline points="176.64,110.78 164.04,120.19" fill="none" stroke="#548fbc" stroke-width="1" opacity="0.28"/><circle cx="303.40" cy="126.09" r="1.61" fill="#8b75b6" opacity="1"/><polyline points="259.25,62.61 250.35,67.84" fill="none" stroke="#629c7e" stroke-width="1" opacity="0.28"/><circle cx="329.13" cy="115.02" r="1.61" fill="#8b75b6" opacity="1"/><circle cx="195.19" cy="130.15" r="1.61" fill="#548fbc" opacity="1"/><polyline points="220.49,64.70 219.40,65.80" fill="none" stroke="#629c7e" stroke-width="1" opacity="0.25"/><polyline points="195.96,120.08 195.20,119.42" fill="none" stroke="#548fbc" stroke-width="1" opacity="0.25"/><circle cx="151.18" cy="138.30" r="1.61" fill="#548fbc" opacity="1"/><circle cx="173.77" cy="93.13" r="1.61" fill="#548fbc" opacity="1"/><circle cx="144.35" cy="109.10" r="1.61" fill="#548fbc" opacity="1"/><polyline points="288.56,119.29 286.39,119.90" fill="none" stroke="#8b75b6" stroke-width="1" opacity="0.25"/><polyline points="158.61,147.53 164.04,120.19" fill="none" stroke="#548fbc" stroke-width="1" opacity="0.28"/><circle cx="314.42" cy="117.25" r="1.61" fill="#8b75b6" opacity="1"/><polyline points="281.40,65.43 280.29,64.34" fill="none" stroke="#629c7e" stroke-width="1" opacity="0.25"/><circle cx="289.96" cy="117.60" r="1.61" fill="#8b75b6" opacity="1"/><circle cx="250.26" cy="44.52" r="1.61" fill="#629c7e" opacity="1"/><polyline points="244.58,74.22 250.35,67.84" fill="none" stroke="#629c7e" stroke-width="1" opacity="0.28"/><polyline points="252.23,67.35 250.35,67.84" fill="none" stroke="#629c7e" stroke-width="1" opacity="0.28"/><circle cx="308.80" cy="120.98" r="1.62" fill="#8b75b6" opacity="1"/><polyline points="240.54,184.02 329.38,175.71" fill="none" stroke="#a8bcc8" stroke-width="1" opacity="0.16"/><polyline points="346.01,119.69 344.89,119.10" fill="none" stroke="#8b75b6" stroke-width="1" opacity="0.25"/><circle cx="176.64" cy="110.78" r="1.62" fill="#548fbc" opacity="1"/><circle cx="170.07" cy="141.79" r="1.62" fill="#548fbc" opacity="1"/><circle cx="237.50" cy="70.84" r="1.62" fill="#629c7e" opacity="1"/><polyline points="131.23,118.97 131.45,119.64" fill="none" stroke="#548fbc" stroke-width="1" opacity="0.25"/><circle cx="263.38" cy="59.70" r="1.62" fill="#629c7e" opacity="1"/><circle cx="187.60" cy="116.92" r="1.62" fill="#548fbc" opacity="1"/><circle cx="131.54" cy="125.38" r="1.62" fill="#548fbc" opacity="1"/><circle cx="339.25" cy="123.51" r="1.62" fill="#8b75b6" opacity="1"/><circle cx="151.31" cy="104.39" r="1.62" fill="#548fbc" opacity="1"/><circle cx="174.71" cy="127.70" r="1.62" fill="#548fbc" opacity="1"/><polyline points="174.94,113.34 164.04,120.19" fill="none" stroke="#548fbc" stroke-width="1" opacity="0.28"/><polyline points="222.14,63.64 220.49,64.70" fill="none" stroke="#629c7e" stroke-width="1" opacity="0.25"/><circle cx="329.49" cy="98.55" r="1.62" fill="#8b75b6" opacity="1"/><polyline points="195.20,119.42 193.88,118.75" fill="none" stroke="#548fbc" stroke-width="1" opacity="0.25"/><circle cx="248.38" cy="61.77" r="1.62" fill="#629c7e" opacity="1"/><circle cx="223.73" cy="62.09" r="1.62" fill="#629c7e" opacity="1"/><polyline points="291.22,118.72 288.56,119.29" fill="none" stroke="#8b75b6" stroke-width="1" opacity="0.25"/><circle cx="242.62" cy="65.44" r="1.63" fill="#629c7e" opacity="1"/><circle cx="158.61" cy="147.53" r="1.63" fill="#548fbc" opacity="1"/><polyline points="280.29,64.34 278.64,63.30" fill="none" stroke="#629c7e" stroke-width="1" opacity="0.25"/><circle cx="147.25" cy="131.06" r="1.63" fill="#548fbc" opacity="1"/><circle cx="306.57" cy="138.95" r="1.63" fill="#8b75b6" opacity="1"/><circle cx="309.16" cy="103.67" r="1.63" fill="#8b75b6" opacity="1"/><polyline points="344.89,119.10 343.21,118.54" fill="none" stroke="#8b75b6" stroke-width="1" opacity="0.25"/><circle cx="273.11" cy="67.86" r="1.63" fill="#629c7e" opacity="1"/><polyline points="150.11,137.76 164.04,120.19" fill="none" stroke="#548fbc" stroke-width="1" opacity="0.28"/><circle cx="299.26" cy="109.71" r="1.63" fill="#8b75b6" opacity="1"/><circle cx="170.19" cy="132.58" r="1.63" fill="#548fbc" opacity="1"/><circle cx="325.96" cy="118.71" r="1.63" fill="#8b75b6" opacity="1"/><polyline points="169.48,117.07 164.04,120.19" fill="none" stroke="#548fbc" stroke-width="1" opacity="0.28"/><polyline points="131.58,118.32 131.23,118.97" fill="none" stroke="#548fbc" stroke-width="1" opacity="0.25"/><circle cx="263.16" cy="42.63" r="1.63" fill="#629c7e" opacity="1"/><circle cx="316.58" cy="148.59" r="1.63" fill="#8b75b6" opacity="1"/><polyline points="224.31,62.64 222.14,63.64" fill="none" stroke="#629c7e" stroke-width="1" opacity="0.25"/><polyline points="294.34,118.19 291.22,118.72" fill="none" stroke="#8b75b6" stroke-width="1" opacity="0.25"/><circle cx="239.93" cy="83.14" r="1.64" fill="#629c7e" opacity="1"/><polyline points="193.88,118.75 192.02,118.11" fill="none" stroke="#548fbc" stroke-width="1" opacity="0.25"/><circle cx="242.51" cy="47.62" r="1.64" fill="#629c7e" opacity="1"/><circle cx="161.86" cy="97.80" r="1.64" fill="#548fbc" opacity="1"/><polyline points="153.87,129.28 164.04,120.19" fill="none" stroke="#548fbc" stroke-width="1" opacity="0.28"/><polyline points="161.58,122.34 164.04,120.19" fill="none" stroke="#548fbc" stroke-width="1" opacity="0.28"/><polyline points="278.64,63.30 276.46,62.32" fill="none" stroke="#629c7e" stroke-width="1" opacity="0.25"/><polyline points="343.21,118.54 340.99,118.03" fill="none" stroke="#8b75b6" stroke-width="1" opacity="0.25"/><circle cx="232.44" cy="53.60" r="1.64" fill="#629c7e" opacity="1"/><circle cx="259.25" cy="62.61" r="1.64" fill="#629c7e" opacity="1"/><circle cx="148.68" cy="124.64" r="1.64" fill="#548fbc" opacity="1"/><circle cx="174.94" cy="113.34" r="1.64" fill="#548fbc" opacity="1"/><circle cx="311.89" cy="130.67" r="1.64" fill="#8b75b6" opacity="1"/><polyline points="97.10,179.73 364.53,181.68" fill="none" stroke="#a8bcc8" stroke-width="1" opacity="0.16"/><polyline points="214.57,183.87 285.27,175.25" fill="none" stroke="#a8bcc8" stroke-width="1" opacity="0.16"/><circle cx="249.69" cy="92.58" r="1.64" fill="#629c7e" opacity="1"/><circle cx="319.53" cy="123.88" r="1.64" fill="#8b75b6" opacity="1"/><polyline points="132.51,117.69 131.58,118.32" fill="none" stroke="#548fbc" stroke-width="1" opacity="0.25"/><circle cx="334.16" cy="129.99" r="1.65" fill="#8b75b6" opacity="1"/><polyline points="226.98,61.71 224.31,62.64" fill="none" stroke="#629c7e" stroke-width="1" opacity="0.25"/><polyline points="297.86,117.72 294.34,118.19" fill="none" stroke="#8b75b6" stroke-width="1" opacity="0.25"/><circle cx="159.46" cy="115.61" r="1.65" fill="#548fbc" opacity="1"/><circle cx="134.38" cy="115.96" r="1.65" fill="#548fbc" opacity="1"/><circle cx="153.46" cy="119.41" r="1.65" fill="#548fbc" opacity="1"/><polyline points="340.99,118.03 338.27,117.58" fill="none" stroke="#8b75b6" stroke-width="1" opacity="0.25"/><polyline points="276.46,62.32 273.78,61.43" fill="none" stroke="#629c7e" stroke-width="1" opacity="0.25"/><polyline points="192.02,118.11 189.63,117.48" fill="none" stroke="#548fbc" stroke-width="1" opacity="0.25"/><circle cx="184.20" cy="121.99" r="1.65" fill="#548fbc" opacity="1"/><circle cx="244.58" cy="74.22" r="1.65" fill="#629c7e" opacity="1"/><circle cx="252.23" cy="67.35" r="1.66" fill="#629c7e" opacity="1"/><circle cx="325.32" cy="138.32" r="1.66" fill="#8b75b6" opacity="1"/><polyline points="301.72,117.31 297.86,117.72" fill="none" stroke="#8b75b6" stroke-width="1" opacity="0.25"/><circle cx="173.93" cy="96.49" r="1.66" fill="#548fbc" opacity="1"/><circle cx="266.87" cy="73.43" r="1.66" fill="#629c7e" opacity="1"/><polyline points="230.10,60.89 226.98,61.71" fill="none" stroke="#629c7e" stroke-width="1" opacity="0.25"/><polyline points="134.02,117.09 132.51,117.69" fill="none" stroke="#548fbc" stroke-width="1" opacity="0.25"/><polyline points="338.27,117.58 335.08,117.19" fill="none" stroke="#8b75b6" stroke-width="1" opacity="0.25"/><circle cx="324.89" cy="103.57" r="1.66" fill="#8b75b6" opacity="1"/><polyline points="273.78,61.43 270.64,60.64" fill="none" stroke="#629c7e" stroke-width="1" opacity="0.25"/><circle cx="150.11" cy="137.76" r="1.66" fill="#548fbc" opacity="1"/><circle cx="152.69" cy="101.72" r="1.66" fill="#548fbc" opacity="1"/><polyline points="189.63,117.48 186.74,116.90" fill="none" stroke="#548fbc" stroke-width="1" opacity="0.25"/><polyline points="305.85,116.98 301.72,117.31" fill="none" stroke="#8b75b6" stroke-width="1" opacity="0.25"/><circle cx="142.32" cy="107.88" r="1.66" fill="#548fbc" opacity="1"/><circle cx="169.48" cy="117.07" r="1.67" fill="#548fbc" opacity="1"/><circle cx="257.58" cy="81.48" r="1.67" fill="#629c7e" opacity="1"/><polyline points="335.08,117.19 331.49,116.89" fill="none" stroke="#8b75b6" stroke-width="1" opacity="0.25"/><polyline points="233.63,60.18 230.10,60.89" fill="none" stroke="#629c7e" stroke-width="1" opacity="0.25"/><circle cx="159.60" cy="147.60" r="1.67" fill="#548fbc" opacity="1"/><polyline points="270.64,60.64 267.10,59.97" fill="none" stroke="#629c7e" stroke-width="1" opacity="0.25"/><circle cx="257.00" cy="46.38" r="1.67" fill="#629c7e" opacity="1"/><polyline points="310.18,116.74 305.85,116.98" fill="none" stroke="#8b75b6" stroke-width="1" opacity="0.25"/><polyline points="136.09,116.54 134.02,117.09" fill="none" stroke="#548fbc" stroke-width="1" opacity="0.25"/><polyline points="331.49,116.89 327.57,116.67" fill="none" stroke="#8b75b6" stroke-width="1" opacity="0.25"/><polyline points="187.89,183.72 239.00,174.77" fill="none" stroke="#a8bcc8" stroke-width="1" opacity="0.16"/><polyline points="314.60,116.58 310.18,116.74" fill="none" stroke="#8b75b6" stroke-width="1" opacity="0.25"/><polyline points="237.50,59.60 233.63,60.18" fill="none" stroke="#629c7e" stroke-width="1" opacity="0.25"/><polyline points="186.74,116.90 183.41,116.37" fill="none" stroke="#548fbc" stroke-width="1" opacity="0.25"/><polyline points="327.57,116.67 323.38,116.55" fill="none" stroke="#8b75b6" stroke-width="1" opacity="0.25"/><polyline points="319.03,116.52 314.60,116.58" fill="none" stroke="#8b75b6" stroke-width="1" opacity="0.25"/><polyline points="267.10,59.97 263.22,59.44" fill="none" stroke="#629c7e" stroke-width="1" opacity="0.25"/><polyline points="323.38,116.55 319.03,116.52" fill="none" stroke="#8b75b6" stroke-width="1" opacity="0.25"/><circle cx="153.87" cy="129.28" r="1.68" fill="#548fbc" opacity="1"/><circle cx="161.58" cy="122.34" r="1.68" fill="#548fbc" opacity="1"/><polyline points="241.63,59.17 237.50,59.60" fill="none" stroke="#629c7e" stroke-width="1" opacity="0.25"/><circle cx="176.33" cy="128.59" r="1.68" fill="#548fbc" opacity="1"/><polyline points="138.69,116.04 136.09,116.54" fill="none" stroke="#548fbc" stroke-width="1" opacity="0.25"/><polyline points="263.22,59.44 259.08,59.06" fill="none" stroke="#629c7e" stroke-width="1" opacity="0.25"/><polyline points="245.95,58.90 241.63,59.17" fill="none" stroke="#629c7e" stroke-width="1" opacity="0.25"/><polyline points="183.41,116.37 179.68,115.89" fill="none" stroke="#548fbc" stroke-width="1" opacity="0.25"/><polyline points="259.08,59.06 254.76,58.84" fill="none" stroke="#629c7e" stroke-width="1" opacity="0.25"/><polyline points="250.35,58.79 245.95,58.90" fill="none" stroke="#629c7e" stroke-width="1" opacity="0.25"/><polyline points="254.76,58.84 250.35,58.79" fill="none" stroke="#629c7e" stroke-width="1" opacity="0.25"/><circle cx="166.37" cy="137.08" r="1.69" fill="#548fbc" opacity="1"/><polyline points="141.79,115.62 138.69,116.04" fill="none" stroke="#548fbc" stroke-width="1" opacity="0.25"/><polyline points="179.68,115.89 175.62,115.50" fill="none" stroke="#548fbc" stroke-width="1" opacity="0.25"/><circle cx="165.57" cy="101.57" r="1.70" fill="#548fbc" opacity="1"/><polyline points="145.32,115.28 141.79,115.62" fill="none" stroke="#548fbc" stroke-width="1" opacity="0.25"/><polyline points="160.47,183.57 190.41,174.27" fill="none" stroke="#a8bcc8" stroke-width="1" opacity="0.16"/><polyline points="175.62,115.50 171.32,115.18" fill="none" stroke="#548fbc" stroke-width="1" opacity="0.25"/><polyline points="149.21,115.02 145.32,115.28" fill="none" stroke="#548fbc" stroke-width="1" opacity="0.25"/><polyline points="171.32,115.18 166.85,114.95" fill="none" stroke="#548fbc" stroke-width="1" opacity="0.25"/><polyline points="153.41,114.86 149.21,115.02" fill="none" stroke="#548fbc" stroke-width="1" opacity="0.25"/><polyline points="166.85,114.95 162.32,114.82" fill="none" stroke="#548fbc" stroke-width="1" opacity="0.25"/><polyline points="157.80,114.79 153.41,114.86" fill="none" stroke="#548fbc" stroke-width="1" opacity="0.25"/><polyline points="162.32,114.82 157.80,114.79" fill="none" stroke="#548fbc" stroke-width="1" opacity="0.25"/><polyline points="132.29,183.41 139.32,173.73" fill="none" stroke="#a8bcc8" stroke-width="1" opacity="0.16"/><polyline points="103.31,183.24 85.54,173.18" fill="none" stroke="#a8bcc8" stroke-width="1" opacity="0.16"/><polyline points="94.92,178.49 381.44,180.75" fill="none" stroke="#a8bcc8" stroke-width="1" opacity="0.16"/><polyline points="92.35,177.03 400.89,179.68" fill="none" stroke="#a8bcc8" stroke-width="1" opacity="0.16"/><polyline points="89.27,175.29 423.53,178.43" fill="none" stroke="#a8bcc8" stroke-width="1" opacity="0.16"/><polyline points="85.54,173.18 450.20,176.96" fill="none" stroke="#a8bcc8" stroke-width="1" opacity="0.16"/></svg>